<?xml version="1.0" encoding="utf-8"?>
<!-- Generator: Adobe Illustrator 13.0.0, SVG Export Plug-In . SVG Version: 6.00 Build 14948)  -->
<!DOCTYPE svg PUBLIC "-//W3C//DTD SVG 1.1//EN" "http://www.w3.org/Graphics/SVG/1.1/DTD/svg11.dtd">
<svg version="1.1" id="Layer_1" xmlns="http://www.w3.org/2000/svg" xmlns:xlink="http://www.w3.org/1999/xlink" x="0px" y="0px"
	 width="230px" height="40px" viewBox="0 0 230 40" enable-background="new 0 0 230 40" xml:space="preserve">
<g>
	<g>
		<g>
			<path fill="#0C3C62" d="M20.85,14.67h0.22c0,0,0-0.33,0-0.37c0.03,0,0.18,0,0.18,0v-0.18c0,0-0.15,0-0.18,0c0-0.03,0-0.18,0-0.18
				h-0.22c0,0,0,0.15,0,0.18c-0.02,0-0.18,0-0.18,0v0.18c0,0,0.15,0,0.18,0C20.85,14.34,20.85,14.67,20.85,14.67z M20.21,15.61h0.22
				v-0.88h-0.22V15.61z M21.98,15.15c-0.03-0.03-0.05-0.04-0.11-0.06l-0.15-0.03c-0.04-0.01-0.05-0.02-0.07-0.03l0,0
				c-0.03-0.02-0.04-0.03-0.04-0.05s0.01-0.05,0.04-0.06c0.02-0.02,0.06-0.02,0.09-0.02c0.07,0,0.15,0.04,0.18,0.08l0.02,0.01
				l0.1-0.16l-0.01-0.01c-0.06-0.04-0.16-0.1-0.27-0.1c-0.11,0-0.2,0.03-0.25,0.08c-0.06,0.05-0.09,0.12-0.09,0.2
				c0,0.09,0.03,0.16,0.09,0.2c0.04,0.02,0.08,0.05,0.16,0.07l0.09,0.02c0.04,0.01,0.05,0.01,0.07,0.03l0.01,0.01
				c0.02,0.01,0.03,0.03,0.03,0.04c0,0.04-0.02,0.07-0.06,0.08c-0.02,0.01-0.06,0.01-0.1,0.01c-0.08,0-0.17-0.05-0.19-0.08
				l-0.01-0.02l-0.1,0.17l0.01,0.01c0.06,0.05,0.16,0.11,0.29,0.11c0.12,0,0.21-0.03,0.26-0.08c0.06-0.06,0.1-0.12,0.1-0.21
				C22.08,15.27,22.05,15.2,21.98,15.15L21.98,15.15z M21.11,15.05h-0.29c0-0.03,0-0.32,0-0.32h-0.21v0.88h0.21c0,0,0-0.34,0-0.38
				h0.29c0,0.03,0,0.38,0,0.38h0.21v-0.88h-0.21C21.11,14.73,21.11,15.02,21.11,15.05z M19.53,19.01c0,0-0.41,0-0.52,0
				c-0.07-0.07-0.36-0.37-0.36-0.37s-0.3,0.29-0.37,0.37c-0.1,0-0.52,0-0.52,0s0,0.41,0,0.52c-0.07,0.07-0.36,0.36-0.36,0.36
				s0.29,0.29,0.36,0.37c0,0.1,0,0.51,0,0.51s0.42,0,0.52,0c0.07,0.07,0.37,0.36,0.37,0.36s0.29-0.29,0.36-0.36c0.1,0,0.52,0,0.52,0
				s0-0.41,0-0.51c0.07-0.07,0.37-0.37,0.37-0.37s-0.3-0.29-0.37-0.36C19.53,19.42,19.53,19.01,19.53,19.01z M19.17,20.1
				c0,0,0,0.19,0,0.3c-0.11,0-0.3,0-0.3,0s-0.14,0.13-0.21,0.21c-0.08-0.08-0.21-0.21-0.21-0.21s-0.19,0-0.3,0c0-0.11,0-0.3,0-0.3
				s-0.13-0.13-0.21-0.21c0.08-0.08,0.21-0.21,0.21-0.21s0-0.19,0-0.3c0.11,0,0.3,0,0.3,0s0.13-0.14,0.21-0.21
				c0.07,0.08,0.21,0.21,0.21,0.21s0.19,0,0.3,0c0,0.11,0,0.3,0,0.3s0.13,0.13,0.21,0.21C19.3,19.97,19.17,20.1,19.17,20.1z
				 M19.79,28.03l0.03,0.02c0.11,0.09,0.23,0.16,0.33,0.23c0.42-0.22,0.71-0.66,0.71-1.17H20.5C20.5,27.54,20.2,27.92,19.79,28.03z
				 M20.32,26.75h-0.37c0,0.39-0.23,0.73-0.56,0.88c0.09,0.1,0.18,0.2,0.26,0.27C20.05,27.67,20.32,27.25,20.32,26.75z M29,20.63
				h-1.17c-0.16-0.28-0.39-0.5-0.68-0.62c0.41-0.11,0.7-0.45,0.7-0.83c0-0.02-0.01-0.03-0.01-0.05c-0.02-0.43-0.3-0.9-0.97-0.91
				c-0.03-0.06-0.08-0.2-0.09-0.44c0-0.03,0-0.06,0-0.08c0-0.3,0.1-0.65,0.21-1.06c0.14-0.51,0.3-1.07,0.3-1.7
				c0-0.07,0-0.14-0.01-0.22c-0.05-0.8-0.35-1.47-0.88-1.92c-0.52-0.46-1.26-0.69-2.06-0.64c-0.14,0.01-0.28,0.03-0.41,0.07
				c0.13-0.1,0.22-0.19,0.28-0.3l1.41-2.4L25.4,9.04l-0.52,0.03c0,0-0.09,0.15-0.13,0.21c-0.06-0.04-0.22-0.13-0.22-0.13L24.07,9.4
				l0.02,0.5c0,0,0.14,0.09,0.2,0.13c-0.04,0.08-0.06,0.1-0.11,0.18c-0.17-0.12-0.46-0.31-0.8-0.45c0.04-0.15,0.08-0.3,0.12-0.46
				c0.08,0.02,0.26,0.07,0.26,0.07l0.41-0.36L24,8.5c0,0-0.17-0.05-0.26-0.07c0.02-0.09,0.07-0.26,0.07-0.26l-0.35-0.41l-0.51,0.17
				c0,0-0.05,0.18-0.07,0.26c-0.08-0.02-0.26-0.07-0.26-0.07L22.2,8.47l0.18,0.52c0,0,0.18,0.05,0.26,0.07
				c-0.04,0.15-0.07,0.28-0.12,0.42c-0.21-0.04-0.58-0.12-1.03-0.15V8.78c0.11,0,0.32,0,0.32,0l0.34-0.52l-0.34-0.52
				c0,0-0.21,0-0.32,0c0-0.11,0-0.31,0-0.31l-0.52-0.37l-0.52,0.37c0,0,0,0.2,0,0.31c-0.11,0-0.31,0-0.31,0L19.8,8.26l0.35,0.52
				c0,0,0.2,0,0.31,0v0.54c-0.44,0.03-0.82,0.11-1.03,0.15c-0.04-0.14-0.07-0.27-0.11-0.42c0.08-0.02,0.26-0.07,0.26-0.07l0.18-0.52
				l-0.41-0.35c0,0-0.18,0.05-0.26,0.07c-0.02-0.08-0.07-0.26-0.07-0.26l-0.51-0.17l-0.36,0.41c0,0,0.05,0.18,0.08,0.26
				c-0.08,0.02-0.26,0.07-0.26,0.07l-0.17,0.51l0.41,0.36c0,0,0.18-0.05,0.26-0.07c0.04,0.16,0.08,0.31,0.12,0.46
				c-0.34,0.15-0.63,0.34-0.8,0.45c-0.05-0.08-0.06-0.1-0.11-0.18c0.06-0.04,0.2-0.13,0.2-0.13l0.02-0.5l-0.45-0.25
				c0,0-0.16,0.09-0.22,0.13c-0.04-0.06-0.13-0.21-0.13-0.21l-0.52-0.03l-0.22,0.47l1.41,2.4c0.06,0.11,0.15,0.21,0.28,0.3
				c-0.13-0.04-0.27-0.06-0.41-0.07c-0.8-0.05-1.53,0.18-2.06,0.64c-0.52,0.45-0.83,1.12-0.88,1.92c0,0.08,0,0.16,0,0.22
				c0,0.62,0.16,1.18,0.3,1.7c0.11,0.41,0.22,0.76,0.22,1.06c0,0.02,0,0.06,0,0.08c-0.02,0.25-0.07,0.38-0.1,0.44
				c-0.67,0.01-0.94,0.48-0.97,0.91c0,0.02,0,0.04,0,0.05c0,0.39,0.28,0.72,0.69,0.83c-0.29,0.13-0.52,0.34-0.68,0.62h-1.16
				l-1.09,1.1l0.97,0.97c-0.04,0.69-0.16,1.18-0.38,1.64c-0.26,0.52-0.28,1.18-0.28,1.37c0,0.47,0.13,1.67,1.33,2.63
				c0.56,0.44,1.02,0.54,1.47,0.64c0.31,0.07,0.61,0.13,0.96,0.3c0.76,0.38,1.03,0.72,1.24,1l0.04,0.05c1.33,1.71,3.08,1.9,3.76,1.9
				s2.43-0.19,3.76-1.9l0.04-0.05c0.21-0.28,0.47-0.62,1.24-1c0.34-0.17,0.64-0.24,0.95-0.3c0.46-0.09,0.92-0.2,1.48-0.64
				c1.2-0.96,1.33-2.16,1.33-2.63c0-0.19-0.02-0.85-0.27-1.37c-0.23-0.46-0.35-0.95-0.39-1.64l0.97-0.97L29,20.63z M27.51,20.82
				c0.02,0.02,0.03,0.06,0.04,0.08c0.02,0.03,0.03,0.06,0.04,0.1c0.09,0.25,0.13,0.53,0.13,0.8c0,0.47-0.11,1.04-0.27,1.61
				c-0.29,1.05-0.76,2.12-1.01,2.66c-0.1-0.24-0.26-0.62-0.26-0.62s-0.43,0.11-0.7,0.18c0.28-0.43,0.74-1.15,1.23-1.96
				c0.33-0.53,0.56-1.27,0.56-1.9c0-0.26-0.04-0.49-0.13-0.69c-0.01-0.05-0.03-0.1-0.06-0.14v0l0,0c-0.14-0.23-0.38-0.41-0.71-0.41
				c-0.44,0-0.73,0.37-0.73,0.71h0.36c0,0,0-0.02,0-0.03c0.02-0.14,0.15-0.31,0.36-0.31c0.16,0,0.28,0.07,0.35,0.17
				c0.02,0.02,0.04,0.04,0.05,0.08c0,0,0.02,0.03,0.03,0.05c0.03,0.08,0.04,0.16,0.04,0.23c0,0.41-0.27,0.67-0.71,0.67
				c-0.5,0-0.85-0.37-0.85-0.88c0-0.41,0.33-1.01,1.06-1.01C26.97,20.22,27.32,20.47,27.51,20.82z M17.07,21.3
				c0.01-1.7,0.32-3.31,0.86-4.63v1.84c0,0,0.56-0.56,0.71-0.71c0.15,0.15,0.71,0.72,0.71,0.72v-1.63l3.46,2.28h-2.79
				c0,0,0.56,0.57,0.71,0.71c-0.15,0.14-0.71,0.71-0.71,0.71h4.83c0.01,0.24,0.02,0.48,0.02,0.71H17.07z M24.88,21.67
				c-0.03,1.97-0.44,3.81-1.17,5.2c-0.74,1.41-1.71,2.19-2.73,2.19c-1.02,0-1.99-0.78-2.73-2.19c-0.73-1.39-1.14-3.23-1.17-5.2
				H24.88z M16.05,17.08c-0.1-0.44-0.2-0.89-0.2-1.48c0-0.11,0-0.23,0.01-0.35c0.06-0.99,0.64-1.4,0.98-1.56
				c0.1-0.05,0.21-0.09,0.32-0.12c-0.11,0.15-0.19,0.34-0.21,0.53c0,0.03,0,0.06,0,0.09c0,0.58,0.41,1,1.02,1.04
				c0.1,0.01,0.21,0,0.31-0.01c-0.13,0.19-0.25,0.39-0.36,0.61c-0.66,1.25-1.07,2.85-1.19,4.57c-0.23-0.3-0.6-0.53-1.07-0.55
				c0.26-0.2,0.49-0.59,0.54-1.37c0-0.08,0.01-0.15,0.01-0.22C16.22,17.84,16.14,17.47,16.05,17.08z M22.66,14.06l0.01,0.02
				c-0.25-0.2-0.52-0.35-0.78-0.46c-0.01-0.17,0-0.53,0.17-0.83c0.47-0.06,0.92-0.15,1.29-0.29c-0.09,0.07-0.17,0.15-0.25,0.23
				C22.79,13.09,22.62,13.57,22.66,14.06z M20.98,12.5c-1.71,0-2.83-0.49-2.91-0.77l0,0c-0.01-0.01-0.01-0.02-0.01-0.02
				c0-0.43,1.16-1.07,2.92-1.07c1.75,0,2.92,0.63,2.92,1.06C23.9,11.97,22.75,12.5,20.98,12.5z M21.63,12.84
				c-0.09,0.25-0.11,0.49-0.11,0.67c-0.18-0.04-0.36-0.06-0.54-0.06c-0.18,0-0.36,0.02-0.54,0.06c0-0.18-0.02-0.42-0.11-0.67
				c0.22,0.01,0.44,0.02,0.66,0.02S21.41,12.85,21.63,12.84z M19.91,12.79c0.16,0.3,0.17,0.66,0.16,0.83
				c-0.27,0.11-0.53,0.26-0.78,0.46l0-0.02c0.03-0.49-0.13-0.97-0.44-1.32c-0.07-0.08-0.16-0.16-0.24-0.22
				C18.98,12.64,19.43,12.73,19.91,12.79z M20.98,13.81c1.02,0,1.99,0.78,2.73,2.19c0.39,0.76,0.7,1.66,0.9,2.64l-5.64-3.73
				C19.57,14.2,20.26,13.81,20.98,13.81z M24.7,19.13c0.05,0.3,0.09,0.61,0.12,0.92l-6.45-4.26c0.12-0.22,0.25-0.42,0.38-0.59
				L24.7,19.13z M20.91,19.54c0.57,0,2.11,0,2.46,0l1.05,0.69c-1.01,0-2.98,0-3.51,0c0.11-0.1,0.35-0.34,0.35-0.34
				S21.01,19.64,20.91,19.54z M18.99,16.65v0.98c-0.1-0.11-0.34-0.35-0.34-0.35s-0.24,0.24-0.35,0.34v-1.43L18.99,16.65z
				 M24.03,15.83c-0.12-0.22-0.23-0.42-0.36-0.61c0.1,0.01,0.2,0.02,0.31,0.01c0.62-0.04,1.02-0.46,1.02-1.04c0-0.03,0-0.05,0-0.09
				c-0.01-0.19-0.09-0.38-0.2-0.53c0.11,0.02,0.21,0.06,0.32,0.12c0.34,0.16,0.91,0.57,0.98,1.56c0.01,0.12,0.01,0.24,0.01,0.35
				c0,0.59-0.1,1.04-0.2,1.48c-0.09,0.39-0.17,0.76-0.17,1.18c0,0.07,0,0.14,0.01,0.22c0.05,0.77,0.29,1.17,0.54,1.37
				c-0.47,0.02-0.83,0.25-1.07,0.55C25.09,18.68,24.69,17.08,24.03,15.83z M24.36,12.51c0.71-0.04,1.35,0.14,1.8,0.54
				c0.45,0.39,0.71,0.97,0.76,1.68c0.04,0.64-0.13,1.25-0.28,1.79c-0.13,0.46-0.25,0.89-0.22,1.27c0.03,0.54,0.2,0.71,0.25,0.75
				l0.06,0.04l0.07,0c0.58-0.04,0.67,0.38,0.68,0.56c0.02,0.28-0.24,0.51-0.58,0.54c-0.59,0.03-0.76-0.65-0.8-1.22
				c-0.03-0.46,0.05-0.85,0.16-1.3c0.12-0.52,0.25-1.11,0.19-1.93c-0.06-0.86-0.49-1.54-1.19-1.87c-0.54-0.26-1.17-0.25-1.54,0.02v0
				c-0.21,0.14-0.34,0.37-0.34,0.6l0,0.03L23.75,14c-0.01-0.14,0.11-0.35,0.35-0.37c0.13-0.01,0.24,0.03,0.33,0.11
				c0.13,0.11,0.19,0.28,0.19,0.39c0.03,0.42-0.23,0.71-0.68,0.74c-0.25,0.02-0.47-0.06-0.64-0.2c-0.17-0.15-0.27-0.37-0.28-0.63
				c-0.03-0.39,0.1-0.78,0.35-1.06C23.62,12.7,23.96,12.54,24.36,12.51z M17.82,11.31c-0.36-0.61-1-1.7-1.07-1.82
				c0.02-0.03,0.02-0.03,0.04-0.07c0.04,0,0.04,0,0.08,0.01c0.05,0.08,0.22,0.36,0.22,0.36s0.27-0.16,0.36-0.21
				c0.03,0.01,0.03,0.01,0.06,0.03c0,0.04,0,0.04,0,0.08c-0.08,0.05-0.34,0.22-0.34,0.22l0.51,0.85l0.16-0.14
				c0,0,0.45-0.37,1.03-0.58l0.15-0.06L18.7,8.84c0,0-0.33,0.09-0.42,0.12c-0.04-0.03-0.04-0.04-0.08-0.07
				c0.02-0.04,0.02-0.06,0.03-0.09c0.1-0.03,0.43-0.12,0.43-0.12s-0.09-0.33-0.12-0.43c0.02-0.03,0.04-0.03,0.06-0.08
				c0.04,0.02,0.05,0.02,0.09,0.04c0.03,0.09,0.12,0.42,0.12,0.42s0.33-0.09,0.43-0.12c0.03,0.03,0.04,0.04,0.07,0.06
				c-0.01,0.05-0.01,0.06-0.03,0.1c-0.1,0.03-0.43,0.12-0.43,0.12l0.31,1.12l0.18-0.05c0,0,0.6-0.16,1.3-0.19l0.18-0.01V8.41
				c0,0-0.38,0-0.48,0c-0.04-0.05-0.06-0.08-0.1-0.15c0.04-0.07,0.06-0.1,0.1-0.15c0.11,0,0.48,0,0.48,0s0-0.38,0-0.49
				c0.05-0.04,0.08-0.06,0.15-0.11c0.06,0.05,0.09,0.07,0.15,0.11c0,0.11,0,0.49,0,0.49s0.38,0,0.49,0c0.04,0.05,0.05,0.08,0.1,0.15
				c-0.04,0.06-0.06,0.09-0.1,0.15c-0.11,0-0.49,0-0.49,0v1.25l0.17,0.01c0.7,0.03,1.3,0.19,1.3,0.19l0.18,0.05l0.31-1.12
				c0,0-0.32-0.09-0.43-0.12c-0.01-0.04-0.02-0.05-0.04-0.1c0.04-0.03,0.05-0.03,0.08-0.06c0.1,0.03,0.43,0.12,0.43,0.12
				s0.09-0.33,0.12-0.42c0.04-0.02,0.05-0.02,0.09-0.04c0.04,0.04,0.04,0.05,0.07,0.08c-0.02,0.11-0.11,0.43-0.11,0.43
				s0.32,0.09,0.42,0.12c0.02,0.03,0.02,0.05,0.03,0.09c-0.04,0.03-0.04,0.04-0.07,0.07c-0.09-0.03-0.42-0.12-0.42-0.12l-0.31,1.13
				l0.16,0.06c0.58,0.21,1.02,0.58,1.02,0.58l0.17,0.14l0.11-0.18l0.4-0.66c0,0-0.26-0.17-0.34-0.22c-0.01-0.04-0.01-0.04-0.01-0.08
				c0.03-0.02,0.04-0.02,0.06-0.03c0.09,0.05,0.36,0.21,0.36,0.21s0.17-0.28,0.21-0.36c0.03,0,0.04,0,0.09-0.01
				c0.02,0.04,0.02,0.04,0.03,0.07c-0.06,0.12-0.71,1.21-1.07,1.82c-0.4-0.59-1.68-1.04-3.16-1.04
				C19.5,10.27,18.22,10.72,17.82,11.31z M14.48,19.15c0.01-0.18,0.1-0.6,0.68-0.56l0.06,0l0.06-0.04c0.05-0.04,0.22-0.21,0.25-0.75
				c0.02-0.38-0.1-0.81-0.22-1.27c-0.15-0.54-0.32-1.15-0.28-1.79c0.04-0.71,0.31-1.29,0.75-1.68c0.45-0.4,1.09-0.58,1.79-0.54
				c0.41,0.03,0.75,0.19,0.99,0.46c0.25,0.28,0.38,0.67,0.35,1.06c-0.02,0.26-0.12,0.48-0.29,0.63c-0.17,0.15-0.39,0.22-0.64,0.2
				c-0.44-0.03-0.71-0.32-0.68-0.74c0.01-0.11,0.07-0.28,0.19-0.39c0.09-0.08,0.21-0.12,0.33-0.11c0.24,0.02,0.36,0.23,0.35,0.37
				l0.36,0.02c0-0.01,0-0.02,0-0.02c0-0.24-0.13-0.47-0.34-0.61l0,0c-0.38-0.27-1-0.28-1.54-0.02c-0.7,0.33-1.13,1.01-1.19,1.87
				c-0.05,0.82,0.08,1.41,0.2,1.93c0.1,0.44,0.18,0.83,0.16,1.3c-0.04,0.58-0.21,1.26-0.8,1.22C14.71,19.66,14.46,19.42,14.48,19.15
				z M14.36,21c0.01-0.03,0.02-0.07,0.04-0.1c0.02-0.03,0.03-0.06,0.05-0.08c0.19-0.35,0.54-0.6,1.16-0.6c0.72,0,1.06,0.6,1.06,1.01
				c0,0.51-0.36,0.88-0.85,0.88c-0.44,0-0.71-0.26-0.71-0.67c0-0.07,0.01-0.15,0.04-0.23c0.02-0.02,0.03-0.04,0.03-0.04
				c0.02-0.05,0.04-0.07,0.06-0.09c0.08-0.1,0.19-0.17,0.35-0.17c0.22,0,0.34,0.17,0.37,0.31c0,0.01,0,0.02,0,0.02l0.36,0.01
				c0-0.34-0.29-0.71-0.73-0.71c-0.33,0-0.57,0.18-0.71,0.41l0,0v0c-0.03,0.04-0.05,0.08-0.07,0.14c-0.09,0.19-0.13,0.43-0.13,0.69
				c0,0.63,0.24,1.37,0.56,1.9c0.5,0.81,0.96,1.54,1.23,1.96c-0.27-0.07-0.7-0.18-0.7-0.18s-0.16,0.38-0.26,0.62
				c-0.25-0.54-0.71-1.62-1.01-2.66c-0.16-0.57-0.27-1.13-0.27-1.61C14.23,21.53,14.26,21.25,14.36,21z M14.14,24.77
				c0.06-0.16,0.13-0.33,0.18-0.51l0.01-0.03c0-0.03,0.01-0.05,0.02-0.07c0.42,1.26,0.97,2.36,1.01,2.43l0.18,0.36
				c0,0,0.36-0.87,0.45-1.07c0.22,0.06,1.3,0.34,1.3,0.34l-0.25-0.4c0,0-0.7-1.08-1.48-2.34c-0.24-0.39-0.4-0.84-0.46-1.25
				c0.19,0.16,0.43,0.25,0.73,0.25c0.37,0,0.69-0.15,0.91-0.4c0.08,1.87,0.5,3.62,1.2,4.97c0.81,1.54,1.89,2.38,3.05,2.38
				c1.17,0,2.25-0.85,3.05-2.38c0.71-1.35,1.13-3.1,1.21-4.97c0.22,0.25,0.54,0.4,0.91,0.4c0.29,0,0.54-0.09,0.72-0.25
				c-0.07,0.42-0.23,0.87-0.46,1.25c-0.78,1.26-1.47,2.34-1.47,2.34l-0.26,0.4c0,0,1.08-0.28,1.3-0.34c0.09,0.2,0.45,1.07,0.45,1.07
				l0.18-0.36c0.04-0.07,0.59-1.18,1.01-2.43c0.01,0.02,0.01,0.05,0.02,0.07l0.01,0.03c0.04,0.17,0.11,0.34,0.18,0.51
				c0.11,0.29,0.24,0.59,0.24,0.93c0,0.22-0.07,1.33-1.5,1.61c-0.77,0.15-1.34,0.35-2.18,0.96c-0.51,0.38-0.79,0.74-1,1
				c-0.07,0.09-0.13,0.17-0.19,0.23c-0.86,0.95-1.99,1-2.21,1s-1.36-0.05-2.22-1c-0.05-0.06-0.11-0.14-0.19-0.23
				c-0.21-0.27-0.48-0.63-0.99-1c-0.84-0.61-1.41-0.81-2.18-0.96c-1.42-0.28-1.49-1.39-1.49-1.61
				C13.9,25.36,14.02,25.06,14.14,24.77z M12.39,21.73l0.46-0.47v0.82c0,0.04,0,0.08,0,0.11L12.39,21.73z M29.18,24.5
				c0.17,0.36,0.23,0.86,0.23,1.21c0,0.42-0.11,1.48-1.19,2.34c-0.49,0.38-0.89,0.47-1.32,0.56c-0.32,0.07-0.66,0.15-1.04,0.33
				c-0.84,0.42-1.15,0.82-1.37,1.11l-0.04,0.05c-1.22,1.59-2.83,1.75-3.47,1.75s-2.25-0.16-3.47-1.75l-0.04-0.05
				c-0.23-0.29-0.54-0.69-1.37-1.11c-0.39-0.19-0.73-0.26-1.05-0.33c-0.43-0.09-0.84-0.18-1.32-0.56c-1.07-0.86-1.19-1.93-1.19-2.34
				c0-0.35,0.06-0.85,0.23-1.21c0.32-0.65,0.44-1.33,0.44-2.42V21h0.75c-0.07,0.24-0.11,0.5-0.11,0.8c0,0.49,0.11,1.06,0.26,1.63
				c-0.04,0.29-0.1,0.51-0.15,0.72l-0.01,0.03c-0.04,0.15-0.1,0.3-0.16,0.46c-0.12,0.31-0.26,0.66-0.26,1.07
				c0,0.75,0.46,1.71,1.79,1.97c0.74,0.14,1.25,0.32,2.03,0.9c0.47,0.34,0.72,0.66,0.93,0.93c0.07,0.09,0.13,0.18,0.2,0.25
				c0.96,1.07,2.24,1.12,2.49,1.12c0.24,0,1.52-0.05,2.48-1.12c0.07-0.07,0.13-0.16,0.2-0.25c0.21-0.27,0.46-0.59,0.92-0.93
				c0.78-0.58,1.3-0.76,2.04-0.9c1.32-0.26,1.79-1.22,1.79-1.97c0-0.41-0.14-0.76-0.26-1.07c-0.06-0.16-0.13-0.31-0.16-0.46
				l-0.01-0.03c-0.05-0.2-0.1-0.43-0.15-0.72c0.16-0.58,0.26-1.15,0.26-1.63c0-0.3-0.04-0.56-0.11-0.8h0.75v1.08
				C28.73,23.17,28.86,23.85,29.18,24.5z M29.1,22.19c0-0.04,0-0.07,0-0.11v-0.82l0.47,0.47L29.1,22.19z M2.98,37.65h71.87V1.71
				H2.98V37.65z M38.9,2.2h35.4v34.84H38.9V2.2z M3.47,2.2h34.96v34.96H3.47V2.2z M18.58,25.38L18.58,25.38v0.03
				c0,0.4,0.32,0.72,0.71,0.72h0.13v0.28c-0.01,0.31-0.15,0.59-0.38,0.76c0.07,0.1,0.14,0.2,0.21,0.29
				c0.32-0.25,0.53-0.62,0.53-1.06v-0.63h-0.49c-0.19,0-0.36-0.16-0.36-0.36l0-0.04c0-0.17-0.11-0.3-0.25-0.34l0,0
				c-0.14-0.05-0.24-0.18-0.24-0.34c0,0,0-0.04,0.01-0.07c0-0.02,0.01-0.05,0.01-0.11c0-0.14-0.07-0.25-0.18-0.31l0,0
				c-0.29-0.16-0.49-0.48-0.49-0.84c0-0.07,0.01-0.13,0.02-0.2l1.15,0.33l1.17,1.4l0.61-0.54v-0.8h-0.38c0,0,0.17-0.37,0.59-0.37
				c0.39,0,0.58,0.28,0.65,0.54l0.28,1.04l1.07-1.27l1.15-0.33c0.01,0.07,0.02,0.13,0.02,0.2c0,0.36-0.19,0.68-0.49,0.84l0,0
				c-0.11,0.07-0.19,0.18-0.19,0.31c0,0.06,0.01,0.09,0.01,0.11c0.01,0.03,0.01,0.06,0.01,0.06c0,0.17-0.1,0.3-0.23,0.35l0,0
				c-0.15,0.04-0.25,0.18-0.25,0.34v0.04c0,0.2-0.16,0.36-0.36,0.36h-0.88c0,0,0.03,0.62-0.45,1.13c-0.11,0.12-0.27,0.42-0.09,0.8
				c0.19,0.4,0.57,0.58,0.57,0.58c0.14-0.07,0.35-0.25,0.35-0.25c-0.32-0.1-0.49-0.3-0.6-0.49c-0.08-0.15-0.04-0.33,0.07-0.42
				c0.14-0.13,0.3-0.42,0.37-0.59c0.08-0.22,0.12-0.41,0.12-0.41h0.55c0.4,0,0.72-0.32,0.72-0.72v-0.03h0
				c0.29-0.1,0.49-0.37,0.49-0.68c0-0.07,0-0.12-0.02-0.18c0.4-0.23,0.67-0.66,0.67-1.16c0-0.23-0.06-0.44-0.16-0.64l-1.58,0.44
				l-0.71,0.84c0,0-0.06-0.18-0.1-0.38c-0.1-0.43-0.41-0.61-0.41-0.61l0.38-0.82l-0.61,0.12l-0.34-0.46l-0.35,0.46l-0.6-0.12
				l0.38,0.82c-0.25,0.17-0.43,0.46-0.43,0.82c0,0.03,0,0.07,0,0.07h0.42l0.01,0.26l-0.21,0.19l-1.01-1.2l-1.57-0.44
				c-0.11,0.19-0.16,0.41-0.16,0.64c0,0.5,0.27,0.93,0.67,1.16c-0.02,0.06-0.02,0.11-0.02,0.18C18.09,25.02,18.29,25.29,18.58,25.38
				z M20.8,22.73l0.17-0.24l0.17,0.24l0.17-0.03l-0.08,0.17c0,0-0.14-0.03-0.25-0.03c-0.12,0-0.25,0.03-0.25,0.03l-0.08-0.17
				L20.8,22.73z"/>
		</g>
		<g>
			<path fill="#0C3C62" d="M81.37,36.14"/>
		</g>
		<path fill="#0C3C62" d="M86.1,16.13c-0.01,0.17-0.03,0.4-0.03,0.64c0,0.98-0.01,1.84-0.01,2.82c0,1.22-0.9,1.85-2,1.85
			c-1.13,0-1.98-0.58-1.98-1.82c0-1.2,0-1.96-0.02-2.76c-0.01-0.23-0.02-0.48-0.04-0.73h0.62c-0.01,0.24-0.04,0.49-0.04,0.73
			c0,0.86-0.02,1.55-0.02,2.55c0,1.08,0.57,1.55,1.55,1.55c0.89,0,1.43-0.43,1.43-1.44c-0.01-0.94-0.01-1.88-0.03-2.74
			c0-0.23-0.01-0.43-0.03-0.64H86.1z"/>
		<path fill="#0C3C62" d="M87.48,20.8v-2.01c0-0.27-0.04-0.49-0.14-0.75l0.59-0.11v2.87c0,0.25,0.03,0.43,0.06,0.59h-0.56
			C87.46,21.22,87.48,21.05,87.48,20.8z M89.62,20.8v-1.68c0-0.52-0.24-0.76-0.79-0.76c-0.31,0-0.63,0.08-0.9,0.23
			c0.14-0.48,0.52-0.67,1.05-0.67c0.71,0,1.09,0.4,1.09,1.06v1.82c0,0.25,0.02,0.43,0.05,0.59h-0.55
			C89.6,21.22,89.62,21.05,89.62,20.8z"/>
		<path fill="#0C3C62" d="M91.21,16.95c0-0.23,0.13-0.36,0.35-0.36c0.2,0,0.36,0.11,0.36,0.33c0,0.25-0.15,0.38-0.36,0.38
			C91.32,17.3,91.21,17.14,91.21,16.95z M91.36,20.8v-2.01c0-0.27-0.04-0.49-0.13-0.75l0.58-0.11v2.87c0,0.25,0.03,0.43,0.07,0.59
			H91.3C91.34,21.22,91.36,21.05,91.36,20.8z"/>
		<path fill="#0C3C62" d="M93.6,20.44l-0.91-2.47h0.58c0.02,0.17,0.06,0.37,0.13,0.55l0.79,2.25h0.04l0.81-2.25
			c0.06-0.18,0.11-0.37,0.13-0.55h0.55l-0.25,0.64l-0.72,1.82c-0.13,0.32-0.25,0.59-0.31,0.95h-0.56
			C93.84,21.03,93.71,20.76,93.6,20.44z"/>
		<path fill="#0C3C62" d="M96.21,19.74c0-1.13,0.57-1.82,1.51-1.82c0.87,0,1.27,0.59,1.27,1.67h-2.34c-0.01,0.06-0.01,0.14-0.01,0.2
			c0,0.73,0.46,1.26,1.34,1.26c0.38,0,0.68-0.1,0.94-0.21v0.39c-0.28,0.13-0.59,0.22-1.09,0.22C96.81,21.44,96.21,20.8,96.21,19.74z
			 M98.52,19.26c-0.02-0.56-0.31-0.9-0.86-0.9c-0.56,0-0.88,0.35-0.97,0.9H98.52z"/>
		<path fill="#0C3C62" d="M99.97,20.8v-2.01c0-0.27-0.04-0.49-0.13-0.75l0.58-0.11v2.87c0,0.25,0.04,0.43,0.06,0.59h-0.57
			C99.95,21.22,99.97,21.05,99.97,20.8z M101.48,17.91c0.1,0,0.18,0,0.27,0.02v0.5c-0.11-0.06-0.25-0.08-0.42-0.08
			c-0.32,0-0.63,0.07-0.9,0.23C100.56,18.1,100.94,17.91,101.48,17.91z"/>
		<path fill="#0C3C62" d="M102.22,21.16v-0.49c0.33,0.24,0.69,0.39,1.09,0.39c0.37,0,0.59-0.18,0.59-0.48
			c0-0.74-1.69-0.51-1.69-1.66c0-0.65,0.48-1,1.09-1c0.43,0,0.69,0.1,0.92,0.22c0,0.17,0,0.34,0.01,0.5
			c-0.27-0.15-0.6-0.28-0.98-0.28c-0.39,0-0.64,0.16-0.64,0.5c0,0.8,1.7,0.54,1.7,1.63c0,0.63-0.41,0.95-1.04,0.95
			C102.83,21.44,102.48,21.32,102.22,21.16z"/>
		<path fill="#0C3C62" d="M105.25,16.95c0-0.23,0.13-0.36,0.35-0.36c0.2,0,0.36,0.11,0.36,0.33c0,0.25-0.15,0.38-0.36,0.38
			C105.36,17.3,105.25,17.14,105.25,16.95z M105.39,20.8v-2.01c0-0.27-0.04-0.49-0.13-0.75l0.58-0.11v2.87
			c0,0.25,0.03,0.43,0.07,0.59h-0.58C105.38,21.22,105.39,21.05,105.39,20.8z"/>
		<path fill="#0C3C62" d="M106.72,19.71c0-1.09,0.67-1.8,1.6-1.8c0.35,0,0.62,0.06,0.84,0.14v-1.28c0-0.32-0.04-0.52-0.13-0.79
			l0.6-0.11l-0.04,4.08c0,0.28-0.01,0.54-0.01,0.81c0,0.2,0.08,0.3,0.29,0.3c0.11,0,0.2-0.03,0.26-0.05v0.32
			c-0.07,0.06-0.22,0.11-0.42,0.11c-0.33,0-0.54-0.23-0.54-0.59v-2.39c-0.25-0.08-0.54-0.13-0.89-0.13c-0.67,0-1.11,0.52-1.11,1.34
			c0,0.91,0.43,1.38,1.25,1.38c0.33,0,0.56-0.07,0.76-0.2c-0.07,0.32-0.34,0.58-0.92,0.58C107.35,21.44,106.72,20.85,106.72,19.71z"
			/>
		<path fill="#0C3C62" d="M110.71,20.58c0-0.57,0.34-0.82,0.92-0.9l0.92-0.12c0.01-0.17,0.01-0.38,0.01-0.58
			c0-0.41-0.22-0.63-0.7-0.63c-0.37,0-0.73,0.13-1.05,0.35v-0.53c0.29-0.17,0.69-0.26,1.08-0.26c0.63,0,1.09,0.26,1.09,0.92
			c0,0.62-0.07,1.36-0.07,1.93c0,0.19,0.09,0.3,0.29,0.3c0.1,0,0.19-0.02,0.27-0.05v0.32c-0.09,0.07-0.23,0.11-0.41,0.11
			c-0.3,0-0.54-0.19-0.54-0.58c0-0.31,0.01-0.65,0.02-0.98l-0.93,0.13c-0.28,0.04-0.48,0.17-0.48,0.45c0,0.41,0.29,0.59,0.67,0.59
			c0.29,0,0.55-0.09,0.71-0.2c-0.08,0.35-0.38,0.58-0.92,0.58S110.71,21.09,110.71,20.58z"/>
		<path fill="#0C3C62" d="M114,19.71c0-1.09,0.67-1.8,1.6-1.8c0.35,0,0.62,0.06,0.84,0.14v-1.28c0-0.32-0.04-0.52-0.13-0.79
			l0.59-0.11l-0.04,4.08c0,0.28-0.01,0.54-0.01,0.81c0,0.2,0.08,0.3,0.29,0.3c0.11,0,0.2-0.03,0.26-0.05v0.32
			c-0.07,0.06-0.22,0.11-0.42,0.11c-0.33,0-0.54-0.23-0.54-0.59v-2.39c-0.25-0.08-0.54-0.13-0.9-0.13c-0.67,0-1.11,0.52-1.11,1.34
			c0,0.91,0.43,1.38,1.25,1.38c0.33,0,0.56-0.07,0.76-0.2c-0.08,0.32-0.34,0.58-0.92,0.58C114.62,21.44,114,20.85,114,19.71z"/>
		<path fill="#0C3C62" d="M82.62,25.03H82.6c0,1.15-0.01,2.35-0.01,3.5c0,0.22,0.03,0.64,0.05,0.86h-0.61
			c0.01-0.25,0.03-0.55,0.05-0.87c0.02-0.61,0.02-2.88,0.02-3.22c0.01-0.42,0.02-0.82,0.01-1.22h0.42l3.69,4.4h0.04v-3.09
			c0-0.51-0.02-1-0.05-1.25h0.62c-0.02,0.22-0.03,0.5-0.04,0.82c-0.02,0.58-0.04,2.46-0.04,3.19v1.3h-0.39L82.62,25.03z"/>
		<path fill="#0C3C62" d="M87.99,28.58c0-0.57,0.34-0.82,0.92-0.9l0.92-0.12c0.01-0.18,0.01-0.38,0.01-0.57
			c0-0.41-0.21-0.63-0.69-0.63c-0.37,0-0.74,0.13-1.05,0.35v-0.52c0.29-0.17,0.7-0.27,1.09-0.27c0.62,0,1.09,0.27,1.09,0.92
			c0,0.62-0.07,1.36-0.07,1.93c0,0.19,0.09,0.29,0.29,0.29c0.1,0,0.19-0.02,0.27-0.05v0.32c-0.09,0.07-0.23,0.11-0.41,0.11
			c-0.3,0-0.54-0.19-0.54-0.58c0-0.31,0.02-0.65,0.02-0.98l-0.92,0.13c-0.28,0.04-0.48,0.17-0.48,0.46c0,0.41,0.29,0.59,0.67,0.59
			c0.29,0,0.55-0.09,0.72-0.19c-0.09,0.36-0.38,0.58-0.92,0.58C88.34,29.44,87.99,29.09,87.99,28.58z"/>
		<path fill="#0C3C62" d="M91.28,27.73c0-1.09,0.67-1.81,1.61-1.81c0.43,0,0.73,0.09,0.95,0.2v0.52c-0.29-0.15-0.58-0.27-0.99-0.27
			c-0.71,0-1.14,0.53-1.14,1.33c0,0.91,0.53,1.36,1.29,1.36c0.33,0,0.56-0.06,0.82-0.16v0.41c-0.25,0.08-0.54,0.14-0.89,0.14
			C91.98,29.44,91.28,28.83,91.28,27.73z"/>
		<path fill="#0C3C62" d="M94.5,24.96c0-0.23,0.13-0.36,0.35-0.36c0.2,0,0.36,0.11,0.36,0.33c0,0.25-0.15,0.38-0.36,0.38
			C94.61,25.3,94.5,25.15,94.5,24.96z M94.64,28.8v-2.01c0-0.27-0.04-0.49-0.13-0.75l0.58-0.11v2.87c0,0.25,0.03,0.42,0.07,0.58
			h-0.57C94.63,29.23,94.64,29.05,94.64,28.8z"/>
		<path fill="#0C3C62" d="M96.07,27.69c0-1.03,0.6-1.77,1.55-1.77c0.95,0,1.55,0.69,1.55,1.76c0,1.02-0.57,1.76-1.53,1.76
			C96.69,29.44,96.07,28.72,96.07,27.69z M98.7,27.8c0-0.85-0.39-1.46-1.09-1.46c-0.7,0-1.08,0.53-1.08,1.33
			c0,0.83,0.45,1.39,1.13,1.39C98.31,29.06,98.7,28.58,98.7,27.8z"/>
		<path fill="#0C3C62" d="M100.24,28.8v-2.01c0-0.27-0.04-0.49-0.14-0.75l0.59-0.11v2.87c0,0.25,0.03,0.42,0.06,0.58h-0.57
			C100.22,29.23,100.24,29.05,100.24,28.8z M102.38,28.8v-1.68c0-0.52-0.25-0.76-0.79-0.76c-0.31,0-0.63,0.08-0.9,0.22
			c0.14-0.48,0.52-0.67,1.05-0.67c0.71,0,1.09,0.41,1.09,1.06v1.82c0,0.25,0.02,0.42,0.05,0.58h-0.55
			C102.36,29.23,102.38,29.05,102.38,28.8z"/>
		<path fill="#0C3C62" d="M103.79,28.58c0-0.57,0.34-0.82,0.92-0.9l0.92-0.12c0.01-0.18,0.01-0.38,0.01-0.57
			c0-0.41-0.22-0.63-0.7-0.63c-0.37,0-0.73,0.13-1.05,0.35v-0.52c0.29-0.17,0.69-0.27,1.08-0.27c0.62,0,1.09,0.27,1.09,0.92
			c0,0.62-0.07,1.36-0.07,1.93c0,0.19,0.09,0.29,0.29,0.29c0.1,0,0.19-0.02,0.26-0.05v0.32c-0.09,0.07-0.23,0.11-0.41,0.11
			c-0.3,0-0.54-0.19-0.54-0.58c0-0.31,0.01-0.65,0.02-0.98l-0.92,0.13c-0.28,0.04-0.48,0.17-0.48,0.46c0,0.41,0.28,0.59,0.67,0.59
			c0.3,0,0.55-0.09,0.71-0.19c-0.08,0.36-0.38,0.58-0.92,0.58C104.15,29.44,103.79,29.09,103.79,28.58z"/>
		<path fill="#0C3C62" d="M107.48,28.8v-3.95c0-0.32-0.07-0.53-0.2-0.79l0.66-0.18v4.93c0,0.26,0.03,0.44,0.09,0.58h-0.63
			C107.45,29.24,107.48,29.07,107.48,28.8z"/>
		<path fill="#0C3C62" d="M81.48,35.72c0-1.09,0.66-1.8,1.6-1.8c0.35,0,0.62,0.07,0.84,0.14v-1.27c0-0.32-0.04-0.52-0.13-0.79
			l0.6-0.11l-0.04,4.08c0,0.28-0.01,0.54-0.01,0.81c0,0.2,0.09,0.29,0.29,0.29c0.1,0,0.2-0.03,0.26-0.05v0.32
			c-0.07,0.06-0.22,0.11-0.42,0.11c-0.33,0-0.54-0.22-0.54-0.59v-2.39c-0.25-0.08-0.54-0.13-0.9-0.13c-0.67,0-1.11,0.52-1.11,1.35
			c0,0.91,0.43,1.38,1.25,1.38c0.33,0,0.56-0.07,0.76-0.2c-0.08,0.32-0.34,0.58-0.92,0.58C82.1,37.45,81.48,36.86,81.48,35.72z"/>
		<path fill="#0C3C62" d="M85.46,35.75c0-1.13,0.57-1.83,1.51-1.83c0.87,0,1.27,0.6,1.27,1.67h-2.34c-0.01,0.07-0.01,0.14-0.01,0.2
			c0,0.73,0.46,1.26,1.34,1.26c0.38,0,0.69-0.1,0.95-0.21v0.39c-0.27,0.13-0.59,0.22-1.09,0.22C86.06,37.45,85.46,36.81,85.46,35.75
			z M87.77,35.27c-0.02-0.56-0.32-0.9-0.86-0.9c-0.56,0-0.88,0.35-0.97,0.9H87.77z"/>
		<path fill="#0C3C62" d="M91.23,34.81c0-1.62,1.06-2.75,2.67-2.75c0.67,0,1.2,0.12,1.6,0.3l0.06,0.69
			c-0.48-0.35-1.02-0.46-1.73-0.46c-1.23,0-2.07,0.82-2.07,2.17c0,1.51,1.03,2.2,2.33,2.2c0.54,0,1.07-0.11,1.43-0.26v0.43
			c-0.4,0.21-0.98,0.31-1.63,0.31C92.36,37.45,91.23,36.5,91.23,34.81z"/>
		<path fill="#0C3C62" d="M99.32,35.68c0,1.01-0.57,1.77-1.53,1.77c-0.94,0-1.56-0.72-1.56-1.76c0-1.04,0.6-1.77,1.55-1.77
			C98.73,33.92,99.32,34.61,99.32,35.68z M98.86,35.8c0-0.86-0.39-1.46-1.09-1.46c-0.7,0-1.08,0.53-1.08,1.33
			c0,0.83,0.46,1.39,1.14,1.39C98.47,37.06,98.86,36.58,98.86,35.8z M97.33,33.61l-0.15-0.2c0.35-0.24,0.86-0.58,1.08-0.74
			c0.13-0.09,0.18-0.11,0.22-0.11c0.03,0,0.05,0.02,0.08,0.07c0.06,0.1,0.13,0.22,0.2,0.36c0.01,0.03,0.02,0.05,0.02,0.07
			c0,0.03-0.01,0.04-0.05,0.06C98.53,33.19,97.34,33.6,97.33,33.61z"/>
		<path fill="#0C3C62" d="M100.35,36.8v-2.01c0-0.27-0.04-0.49-0.13-0.75l0.58-0.11v2.87c0,0.25,0.04,0.43,0.06,0.59h-0.57
			C100.33,37.23,100.35,37.05,100.35,36.8z M101.86,33.92c0.1,0,0.18,0.01,0.27,0.02v0.5c-0.11-0.06-0.25-0.08-0.42-0.08
			c-0.32,0-0.63,0.07-0.9,0.22C100.94,34.11,101.32,33.92,101.86,33.92z"/>
		<path fill="#0C3C62" d="M102.4,35.72c0-1.09,0.67-1.8,1.6-1.8c0.35,0,0.63,0.07,0.84,0.14v-1.27c0-0.32-0.04-0.52-0.13-0.79
			l0.59-0.11l-0.04,4.08c0,0.28-0.01,0.54-0.01,0.81c0,0.2,0.08,0.29,0.29,0.29c0.11,0,0.2-0.03,0.26-0.05v0.32
			c-0.07,0.06-0.22,0.11-0.42,0.11c-0.33,0-0.54-0.22-0.54-0.59v-2.39c-0.25-0.08-0.54-0.13-0.89-0.13c-0.67,0-1.11,0.52-1.11,1.35
			c0,0.91,0.43,1.38,1.25,1.38c0.33,0,0.56-0.07,0.76-0.2c-0.08,0.32-0.34,0.58-0.92,0.58C103.02,37.45,102.4,36.86,102.4,35.72z"/>
		<path fill="#0C3C62" d="M106.41,35.69c0-1.04,0.6-1.77,1.55-1.77c0.95,0,1.55,0.69,1.55,1.77c0,1.01-0.57,1.77-1.53,1.77
			C107.03,37.45,106.41,36.73,106.41,35.69z M109.05,35.8c0-0.86-0.39-1.46-1.09-1.46c-0.7,0-1.08,0.53-1.08,1.33
			c0,0.83,0.46,1.39,1.14,1.39C108.65,37.06,109.05,36.58,109.05,35.8z"/>
		<path fill="#0C3C62" d="M110.53,37.11v-4.25c0-0.32-0.06-0.53-0.19-0.79l0.66-0.18v4.97c0.22,0.16,0.48,0.22,0.77,0.22
			c0.72,0,1.19-0.51,1.19-1.29c0-0.88-0.39-1.41-1.17-1.41c-0.29,0-0.59,0.09-0.79,0.2c0.11-0.45,0.54-0.67,0.99-0.67
			c0.96,0,1.44,0.7,1.44,1.77c0,0.99-0.69,1.76-1.67,1.76C111.27,37.45,110.9,37.34,110.53,37.11z"/>
		<path fill="#0C3C62" d="M114.09,36.59c0-0.57,0.34-0.82,0.92-0.9l0.92-0.12c0.01-0.17,0.02-0.38,0.02-0.58
			c0-0.41-0.22-0.63-0.69-0.63c-0.37,0-0.74,0.13-1.05,0.35v-0.53c0.29-0.17,0.69-0.26,1.08-0.26c0.63,0,1.1,0.26,1.1,0.92
			c0,0.62-0.07,1.36-0.07,1.93c0,0.19,0.09,0.29,0.29,0.29c0.1,0,0.19-0.02,0.27-0.05v0.32c-0.09,0.07-0.23,0.11-0.41,0.11
			c-0.3,0-0.54-0.19-0.54-0.58c0-0.31,0.02-0.65,0.02-0.98L115,36.02c-0.28,0.04-0.48,0.17-0.48,0.46c0,0.41,0.29,0.59,0.67,0.59
			c0.3,0,0.55-0.09,0.72-0.2c-0.09,0.36-0.38,0.58-0.92,0.58C114.45,37.45,114.09,37.09,114.09,36.59z"/>
		<path fill="#0C3C62" d="M52.47,16.73c-0.02,0.2-0.04,0.48-0.04,0.75c0,1.16-0.02,1.94-0.02,3.12c0,1.46-1.04,2.41-2.62,2.41
			c-1.53,0-2.62-0.8-2.62-2.38c0-1.4-0.01-2.1-0.03-3.04c-0.01-0.27-0.02-0.56-0.04-0.86h1.22c-0.02,0.29-0.04,0.59-0.04,0.86
			c0,1.01-0.02,1.71-0.02,2.8c0,1.08,0.6,1.65,1.58,1.65c1.01,0,1.53-0.61,1.52-1.52c-0.01-1.02-0.03-2.02-0.03-3.03
			c0-0.27-0.01-0.51-0.03-0.75H52.47z"/>
		<path fill="#0C3C62" d="M55.55,18.4h-0.03v3.63c0,0.33,0.03,0.68,0.1,0.91h-1.24c0.15-0.96,0.17-2.32,0.17-3.51
			c0-0.63-0.01-1.15-0.02-1.6c-0.01-0.44-0.01-0.8-0.03-1.13h1.1l3.47,4.23h0.05c0-0.82-0.01-1.71-0.01-2.53
			c0-0.56-0.01-1.13-0.05-1.7h1.12c-0.04,0.56-0.04,1.13-0.07,1.7c-0.03,0.49-0.02,2.47,0,3.19c0.01,0.47,0.02,0.94,0.04,1.42h-0.85
			L55.55,18.4z"/>
		<path fill="#0C3C62" d="M61.8,19.91c0-1.9,1.25-3.23,3.16-3.23c0.77,0,1.33,0.12,1.81,0.29c-0.02,0.43-0.04,0.83-0.06,1.26
			c-0.43-0.32-1.04-0.57-1.79-0.57c-1.18,0-1.91,0.84-1.91,2.18c0,1.51,0.96,2.29,2.19,2.29c0.59,0,1.09-0.12,1.54-0.34v0.95
			c-0.48,0.2-1.05,0.26-1.8,0.26C63.14,23.01,61.8,21.9,61.8,19.91z"/>
	</g>
	<g>
		<polygon fill="#0C3C62" points="142.32,34.01 138.95,34.01 138.95,32.32 140.63,32.32 140.63,25.58 145.68,25.58 145.68,28.95 
			149.06,28.95 149.06,22.19 154.12,22.19 154.12,27.27 159.21,27.27 159.21,20.51 165.96,20.51 165.96,28.96 167.64,28.96 
			167.64,25.59 172.73,25.59 172.73,28.96 174.41,28.96 174.41,30.65 171.04,30.65 171.04,27.28 169.33,27.28 169.33,30.65 
			164.27,30.65 164.27,22.2 160.9,22.2 160.9,28.97 152.43,28.97 152.43,23.88 150.75,23.88 150.75,30.64 143.99,30.64 
			143.99,27.27 142.32,27.27 		"/>
		<polygon fill="#0082C9" points="174.41,37.43 138.95,37.43 138.95,35.73 172.72,35.73 172.72,34.05 155.82,34.05 155.82,30.66 
			157.51,30.66 157.51,32.36 174.41,32.36 		"/>
		<polygon fill="#B31E8D" points="157.5,25.6 155.81,25.6 155.81,7.05 159.19,7.05 159.19,5.31 155.81,5.31 155.81,2.01 157.5,2.01 
			157.5,3.62 160.88,3.62 160.88,8.74 157.5,8.74 		"/>
	</g>
	<g>
		<g>
			<path fill="#0C3C62" d="M179.63,30.37c0.05-0.33,0.09-0.71,0.12-1.14c0.05-0.74,0.06-1.63,0.06-2.63v-2.31
				c0-0.91-0.02-1.68-0.04-2.34c-0.01-0.54-0.05-1.01-0.09-1.43l1.17-0.01c0.63-0.02,1.39-0.03,2.17-0.03c1.94,0,2.98,1,2.98,2.65
				c0,1.39-0.56,2.26-1.64,2.82c0.93,1.38,1.65,2.34,2.38,3.18c0.5,0.58,0.91,0.99,1.26,1.27h-2.19c-0.38,0-0.58-0.09-0.74-0.33
				c-0.28-0.39-0.58-0.85-1.21-1.85c-0.47-0.75-0.74-1.1-1.05-1.6c-0.04-0.07-0.09-0.08-0.17-0.08l-1.08-0.01
				c0,0.79,0.02,1.27,0.05,2.04c0.04,0.7,0.09,1.33,0.16,1.8H179.63z M181.66,25.25c0.26,0.06,0.58,0.09,0.91,0.09
				c1,0,1.54-0.59,1.54-1.76c0-1.12-0.53-1.8-1.79-1.8c-0.28,0-0.53,0.03-0.76,0.07v0.25v3.02
				C181.55,25.18,181.59,25.23,181.66,25.25z"/>
			<path fill="#0C3C62" d="M188.19,27.29c0-2.04,1.16-3.43,3.05-3.43c2.05,0,2.68,1.49,2.68,3.72h-3.97v0.19
				c0,0.96,0.79,1.41,1.85,1.41c0.74,0,1.35-0.13,1.88-0.35v1.23c-0.51,0.25-1.25,0.43-2.17,0.43
				C189.37,30.48,188.19,29.43,188.19,27.29z M192.21,26.61c0-0.75-0.26-1.27-1.04-1.27c-0.76,0-1.16,0.54-1.21,1.27H192.21z"/>
			<path fill="#0C3C62" d="M197.02,22.64c0,0.38,0.01,1,0.01,1.48h1.22l-0.05,1.22h-1.17v3.93c0,0.48,0.04,0.83,0.11,1.1h-2
				c0.06-0.27,0.12-0.63,0.12-1.1v-3.93h-0.68v-1.22h0.68v-1.34c0-1.57,0.8-2.59,2.27-2.59c0.59,0,1.06,0.13,1.41,0.24
				c-0.02,0.5-0.04,1-0.06,1.5c-0.38-0.09-0.74-0.16-1.1-0.16C197.3,21.77,197.02,22.07,197.02,22.64z"/>
			<path fill="#0C3C62" d="M198.77,27.29c0-2.13,1.18-3.43,2.96-3.43c1.92,0,3.01,1.24,3.01,3.4c0,2.06-1.14,3.22-2.94,3.22
				C199.99,30.48,198.77,29.37,198.77,27.29z M202.92,27.34c0-1.18-0.36-1.93-1.14-1.93c-0.83,0-1.21,0.72-1.21,1.93
				c0,1.13,0.41,1.86,1.21,1.86C202.55,29.2,202.92,28.47,202.92,27.34z"/>
			<path fill="#0C3C62" d="M206.14,29.27v-3.9c0-0.47-0.03-0.8-0.25-1.21l1.89-0.39v5.5c0,0.5,0.05,0.83,0.16,1.1h-1.97
				C206.08,30.1,206.14,29.77,206.14,29.27z M209.42,23.88c0.13-0.02,0.28-0.03,0.43-0.03v1.8c-0.39-0.08-0.84-0.13-1.3-0.13
				c-0.28,0-0.54,0.03-0.78,0.08C208,24.63,208.53,24.02,209.42,23.88z"/>
			<path fill="#0C3C62" d="M212.59,23.85v5.41c0,0.45,0.04,0.79,0.1,1.1h-2.01c0.09-0.32,0.13-0.66,0.13-1.1v-3.64
				c0-0.53-0.04-0.95-0.14-1.43L212.59,23.85z M218.19,29.27v-3.04c0-0.59-0.33-0.83-0.88-0.83c-0.41,0-0.7,0.03-1.04,0.09
				c0.01,0.08,0.01,0.16,0.01,0.25v3.52c0,0.45,0.05,0.79,0.13,1.1h-2c0.06-0.32,0.09-0.66,0.09-1.1v-3.04
				c0-0.59-0.33-0.83-0.88-0.83c-0.41,0-0.7,0.03-1.04,0.09c0.18-1.11,0.86-1.64,1.98-1.64c0.95,0,1.6,0.6,1.7,1.63
				c0.18-1.09,0.86-1.63,1.99-1.63c1.02,0,1.71,0.71,1.71,1.89v3.52c0,0.45,0.05,0.79,0.13,1.1h-2
				C218.16,30.06,218.19,29.72,218.19,29.27z"/>
			<path fill="#0C3C62" d="M227.02,29.14v1.1c-0.26,0.12-0.62,0.24-1.12,0.24c-0.88,0-1.35-0.44-1.43-1.29
				c-0.04,0.83-0.53,1.29-1.44,1.29c-1.05,0-1.71-0.64-1.71-1.72c0-1.12,0.74-1.69,1.83-1.8l1.34-0.13
				c0.01-0.25,0.01-0.51,0.01-0.76c0-0.42-0.25-0.63-0.83-0.63c-0.67,0-1.39,0.22-2.09,0.52V24.3c0.79-0.29,1.59-0.45,2.5-0.45
				c1.49,0,2.21,0.6,2.21,1.92c0,1.05-0.16,2.03-0.16,2.96c0,0.32,0.15,0.5,0.45,0.5C226.76,29.23,226.91,29.19,227.02,29.14z
				 M224.49,27.89l-0.62,0.05c-0.46,0.04-0.79,0.22-0.79,0.67c0,0.41,0.28,0.61,0.67,0.61c0.3,0,0.54-0.06,0.71-0.12v-0.17
				C224.46,28.56,224.48,28.27,224.49,27.89z"/>
		</g>
		<g>
			<path fill="#0C3C62" d="M179.63,36.69h0.76v-2.36l-0.63,0.07V34l1.03-0.14v2.83h0.76v0.36h-1.92V36.69z"/>
			<path fill="#0C3C62" d="M182.55,38.29l-0.13-0.37c0.95-0.28,1.63-0.92,1.73-1.8l-0.02,0c-0.21,0.26-0.54,0.4-0.91,0.4
				c-0.74,0-1.24-0.47-1.24-1.26c0-0.77,0.53-1.37,1.32-1.37c0.74,0,1.31,0.57,1.31,1.57C184.63,36.95,183.8,37.85,182.55,38.29z
				 M184.16,35.3c0-0.55-0.33-0.99-0.9-0.99c-0.52,0-0.86,0.34-0.86,0.96c0,0.56,0.39,0.87,0.87,0.87
				C183.82,36.14,184.16,35.85,184.16,35.3z"/>
			<path fill="#0C3C62" d="M185.15,36.69h0.76v-2.36l-0.63,0.07V34l1.04-0.14v2.83h0.76v0.36h-1.92V36.69z"/>
			<path fill="#0C3C62" d="M190.14,35.79c0,0.75-0.49,1.32-1.3,1.32c-0.81,0-1.33-0.5-1.33-1.29c0-0.53,0.26-0.94,0.69-1.16v-0.02
				c-0.34-0.2-0.55-0.49-0.55-0.97c0-0.7,0.47-1.21,1.18-1.21c0.72,0,1.16,0.47,1.16,1.19c0,0.46-0.21,0.77-0.53,0.97v0.01
				C189.89,34.84,190.14,35.24,190.14,35.79z M189.72,35.81c0-0.61-0.37-0.97-0.9-0.97c-0.53,0-0.9,0.36-0.9,0.97
				c0,0.59,0.41,0.93,0.93,0.93C189.39,36.73,189.72,36.39,189.72,35.81z M188.07,33.7c0,0.49,0.34,0.79,0.78,0.79
				c0.46,0,0.73-0.3,0.73-0.79c0-0.51-0.31-0.8-0.75-0.8C188.38,32.9,188.07,33.2,188.07,33.7z"/>
		</g>
		<g>
			<path fill="#0C3C62" d="M197.61,35.55c0-0.91,0.53-1.55,1.36-1.55c0.84,0,1.36,0.61,1.36,1.55c0,0.89-0.5,1.55-1.35,1.55
				C198.16,37.1,197.61,36.47,197.61,35.55z M199.92,35.66c0-0.75-0.35-1.28-0.96-1.28c-0.62,0-0.95,0.47-0.95,1.16
				c0,0.73,0.4,1.23,0.99,1.23C199.58,36.76,199.92,36.34,199.92,35.66z"/>
			<path fill="#0C3C62" d="M197.11,36.74v0.36h-2.27c0-1.01,1.6-1.2,1.6-2.14c0-0.37-0.22-0.53-0.62-0.53
				c-0.33,0-0.65,0.12-0.92,0.3v-0.46c0.25-0.14,0.6-0.23,0.95-0.23c0.61,0,1.02,0.28,1.02,0.86c0,0.98-1.06,1.23-1.49,1.82v0.02
				H197.11z"/>
			<path fill="#0C3C62" d="M200.95,36.74h0.76v-2.36l-0.63,0.07v-0.4l1.03-0.14v2.83h0.76v0.36h-1.92V36.74z"/>
			<path fill="#0C3C62" d="M205.94,35.79c0,0.75-0.49,1.32-1.3,1.32c-0.81,0-1.33-0.5-1.33-1.29c0-0.53,0.26-0.94,0.7-1.16v-0.02
				c-0.34-0.2-0.56-0.49-0.56-0.97c0-0.7,0.47-1.21,1.18-1.21c0.73,0,1.15,0.47,1.15,1.19c0,0.46-0.2,0.77-0.53,0.97v0.01
				C205.69,34.84,205.94,35.24,205.94,35.79z M205.52,35.81c0-0.61-0.37-0.97-0.89-0.97c-0.54,0-0.91,0.36-0.91,0.97
				c0,0.59,0.41,0.93,0.92,0.93C205.19,36.73,205.52,36.39,205.52,35.81z M203.86,33.7c0,0.49,0.34,0.79,0.78,0.79
				c0.46,0,0.73-0.3,0.73-0.79c0-0.51-0.31-0.8-0.75-0.8C204.17,32.9,203.86,33.2,203.86,33.7z"/>
		</g>
		<rect x="191.69" y="35.36" fill="#0C3C62" width="1.92" height="0.36"/>
	</g>
</g>
</svg>
